HIERARCHY
ROOT hip
{
	OFFSET 0.000000 0.000000 0.000000 
	CHANNELS 6 Xposition Yposition Zposition Xrotation Zrotation Yrotation
	JOINT abdomen
	{
		OFFSET 0.000000 3.402643 0.000000 
		CHANNELS 3 Xrotation Zrotation Yrotation
		JOINT chest
		{
			OFFSET 0.000000 8.438565 -0.680529 
			CHANNELS 3 Xrotation Zrotation Yrotation
			JOINT neck
			{
				OFFSET 0.000000 10.207942 -0.272212 
				CHANNELS 3 Xrotation Zrotation Yrotation
				JOINT head
				{
					OFFSET 0.000000 3.130431 0.000000 
					CHANNELS 3 Xrotation Zrotation Yrotation
					End Site
					{
						OFFSET 0.000000 3.130435 0.000000 
					}
				}
			}
			JOINT lCollar
			{
				OFFSET 3.470700 6.669187 -0.816635 
				CHANNELS 3 Yrotation Zrotation Xrotation
				JOINT lShldr
				{
					OFFSET 3.198488 0.000000 0.000000 
					CHANNELS 3 Zrotation Yrotation Xrotation
					JOINT lForeArm
					{
						OFFSET 10.139888 0.000000 0.000000 
						CHANNELS 3 Yrotation Zrotation Xrotation
						JOINT lHand
						{
							OFFSET 8.370511 0.000000 0.000000 
							CHANNELS 3 Zrotation Yrotation Xrotation
							End Site
							{
								OFFSET 4.083176 0.000000 0.000000 
							}
						}
					}
				}
			}
			JOINT rCollar
			{
				OFFSET -3.470700 6.669187 -0.816635 
				CHANNELS 3 Yrotation Zrotation Xrotation
				JOINT rShldr
				{
					OFFSET -3.198488 0.000000 0.000000 
					CHANNELS 3 Zrotation Yrotation Xrotation
					JOINT rForeArm
					{
						OFFSET -10.139888 0.000000 0.000000 
						CHANNELS 3 Yrotation Zrotation Xrotation
						JOINT rHand
						{
							OFFSET -8.370511 0.000000 0.000000 
							CHANNELS 3 Zrotation Yrotation Xrotation
							End Site
							{
								OFFSET -4.083176 0.000000 0.000000 
							}
						}
					}
				}
			}
		}
	}
	JOINT lThigh
	{
		OFFSET 5.308129 -1.633274 1.361059 
		CHANNELS 3 Xrotation Zrotation Yrotation
		JOINT lShin
		{
			OFFSET -2.041588 -20.007561 0.000000 
			CHANNELS 3 Xrotation Zrotation Yrotation
			JOINT lFoot
			{
				OFFSET 0.000000 -19.190928 -1.224953 
				CHANNELS 3 Xrotation Yrotation Zrotation
				End Site
				{
					OFFSET 0.000000 -2.449906 4.627600 
				}
			}
		}
	}
	JOINT rThigh
	{
		OFFSET -5.308129 -1.633274 1.361059 
		CHANNELS 3 Xrotation Zrotation Yrotation
		JOINT rShin
		{
			OFFSET 2.041588 -20.007561 0.000000 
			CHANNELS 3 Xrotation Zrotation Yrotation
			JOINT rFoot
			{
				OFFSET 0.000000 -19.190928 -1.224953 
				CHANNELS 3 Xrotation Yrotation Zrotation
				End Site
				{
					OFFSET 0.000000 -2.449906 4.627600 
				}
			}
		}
	}
}
MOTION
Frames: 13
Frame Time: 0.033333
-2.741325 46.239651 34.646023 -9.604105 4.034637 152.785004 0.000000 0.000000 0.000000 13.137975 1.255333 14.785307 22.100170 -2.939057 -9.072449 -41.445038 9.287102 -12.094784 -2.430645 -10.323391 -0.481693 -59.574535 -8.751197 33.989159 -72.524483 9.004106 7.259496 -4.860270 -9.320365 -30.942993 7.174973 7.265682 -0.549230 47.746628 41.525135 42.306065 77.620773 -2.316668 2.293921 -6.626754 9.309914 1.902696 -37.726158 22.389645 -11.560658 47.535069 0.363939 -12.779880 -5.084060 6.825317 -9.406005 -4.316348 -18.529524 -13.653495 30.647533 1.078937 3.242871 2.303220 -21.575951 20.495222 
-2.520875 45.347408 34.918423 -9.124420 3.056606 147.575912 0.000000 0.000000 0.000000 13.525722 2.193355 13.115728 21.280724 -2.089835 -5.840035 -42.746372 6.309360 -7.570344 -3.449274 -10.871987 -0.647952 -58.399239 -10.059010 33.459084 -72.566910 9.910795 7.620499 -3.452723 -9.327535 -30.713640 6.123049 9.265253 -0.630331 38.131760 38.955780 35.246574 79.080193 -5.350361 3.913482 -3.404865 8.132313 1.263898 -38.152493 24.217899 -9.382710 52.223499 0.940381 -12.619064 -6.661198 7.411153 -10.714777 -7.021116 -21.450819 -11.374859 28.365488 1.913760 -1.791733 3.123538 -23.545721 22.137178 
-1.998040 44.434799 35.184444 -7.378365 2.169404 143.322861 0.000000 0.000000 0.000000 13.888022 0.777375 10.846614 21.231777 0.987185 -1.970284 -43.628136 2.874962 -1.936052 -4.077947 -10.292998 -0.675883 -55.868011 -12.575776 34.343884 -73.543427 12.541797 8.862524 -4.932708 -8.275002 -30.098516 6.539701 12.874259 -0.984471 27.240702 34.611851 22.275673 82.896820 -2.120636 3.795637 -9.944692 7.331429 -0.176513 -35.758286 25.388912 -8.450163 54.511864 0.493617 -11.554538 -9.772691 8.614902 -11.895245 -9.013213 -24.401468 -9.473109 28.969233 2.660137 -4.777559 2.739616 -23.761602 23.168585 
-1.081408 43.754131 35.782944 -6.056951 1.563493 139.365433 0.000000 0.000000 0.000000 14.275692 1.911788 8.347728 18.957470 -0.212571 1.199362 -43.474159 1.236704 1.655536 -4.246965 -12.333171 -0.765571 -51.517494 -15.517821 31.191694 -77.433182 13.696939 10.699926 -1.598841 -8.015527 -31.038904 8.070220 11.476068 -1.163213 19.702421 29.422966 11.105172 89.225830 -1.015625 3.341079 -10.741940 5.575541 -0.622033 -32.058174 27.459461 -7.257728 53.899227 -0.083624 -11.025857 -12.522963 10.278243 -13.240684 -12.811037 -25.523336 -6.738743 34.798279 3.469701 -3.508761 -1.804117 -23.642937 25.626120 
0.192370 43.580185 36.764015 -5.127011 0.272343 136.362274 0.000000 0.000000 0.000000 12.294943 0.104958 5.745548 18.884008 -0.352390 4.219861 -43.982044 0.807028 4.970652 -4.031885 -13.258848 -0.822478 -44.513271 -18.016460 24.970396 -82.178886 13.577314 12.226561 -1.748549 -8.854989 -31.019161 9.371029 10.378674 -1.236233 15.838346 24.449650 6.170780 95.097717 -3.429860 4.447010 -12.351713 3.243287 -0.530035 -27.651464 29.097818 -5.062624 49.927036 -0.358212 -10.426638 -12.372055 11.967762 -14.637694 -17.851507 -25.360819 -6.704895 41.460583 2.284893 3.038108 -6.201671 -27.360670 22.495266 
2.099718 44.076550 37.990170 -4.492200 0.136299 133.036163 0.000000 0.000000 0.000000 9.962036 -0.846420 6.306287 19.117781 -1.518187 6.456783 -43.611530 1.256848 6.856105 -4.883095 -14.146710 -1.024379 -36.025158 -19.384512 16.537609 -86.719780 10.422334 12.058276 1.949885 -8.144841 -32.176590 9.344087 9.440885 -1.098704 11.890574 21.196936 4.874300 99.891426 -8.015326 7.911760 -11.157012 3.119933 -2.287048 -19.994204 32.121357 -2.396221 42.082825 -1.370358 -8.338803 -8.452036 12.824644 -16.670845 -19.697260 -22.089727 -10.497741 43.640717 -1.298584 7.555887 -7.453882 -28.136339 18.761896 
4.421876 45.224804 39.246914 -3.906739 0.906093 131.578766 0.000000 0.000000 0.000000 6.625668 -2.124401 5.632005 20.094723 1.314309 8.026810 -40.284893 0.410964 8.601389 -8.125715 -13.544232 -1.540004 -29.800457 -19.700266 12.081376 -89.986725 8.848755 11.288533 3.609752 -7.594637 -31.913561 6.731147 8.973475 -0.723113 10.404128 18.485571 3.989100 102.815071 -11.593701 12.071193 -9.412344 2.697392 -6.150043 -12.769575 33.195461 -2.073223 33.670734 -2.130504 -3.167478 0.084139 15.182440 -13.371153 -14.811939 -17.905031 -12.675650 38.885517 -1.605070 8.617413 -8.911315 -27.512871 18.798340 
6.337299 46.789688 40.340527 -3.916407 0.808654 132.874329 0.000000 0.000000 0.000000 1.879363 -3.904155 2.479047 21.625877 5.317394 9.325081 -37.173382 -1.301151 10.164570 -9.932489 -13.009686 -1.699346 -26.970175 -23.405012 15.221374 -90.754631 10.834615 11.630162 -0.330264 -7.578399 -26.602509 3.537180 8.912598 -0.370595 9.522563 14.767352 3.022897 105.969444 -14.253524 16.356241 -10.091032 4.156082 -8.582438 -12.299335 30.401031 -3.434044 30.598335 -3.265198 13.449777 4.767879 13.584203 -8.045319 -9.714068 -15.040895 -13.871191 32.553020 0.479089 8.614686 -5.551517 -27.783278 19.868174 
7.710043 48.330219 41.220242 -4.033948 1.100782 133.750519 0.000000 0.000000 0.000000 -0.430888 -4.277223 0.188298 21.844091 9.293017 11.169563 -35.528580 -6.098417 13.687067 -10.765391 -12.799666 -1.701599 -24.392143 -28.450880 15.671092 -91.379387 9.676575 11.372046 0.868499 -9.082988 -24.153093 0.424020 9.191482 -0.089841 5.254057 13.412303 4.277607 108.015862 -20.533560 22.747009 -10.608533 5.957763 -8.241976 -14.722823 27.063845 0.314977 35.815083 -5.186184 6.153761 0.008388 9.644906 -9.323190 -8.251841 -14.080848 -12.531481 31.257729 2.021433 4.450140 3.981122 -18.571518 27.374636 
8.837020 49.471390 41.854359 -3.019329 1.950416 133.041733 0.000000 0.000000 0.000000 0.421005 -4.111217 -1.593306 22.671423 10.615476 12.601888 -39.301098 -7.909806 15.720980 -12.007648 -11.704969 -1.725009 -22.996864 -31.590189 16.781805 -93.894745 11.190234 12.380562 -0.275304 -11.035497 -21.223803 1.066089 8.837381 -0.243860 1.184045 6.990132 1.602179 111.621674 -24.721088 30.071987 -10.139240 7.134275 -14.055060 -15.291935 21.775459 4.754107 40.512043 -5.858187 -6.589565 -4.059540 5.889225 -12.862451 -9.217973 -15.515370 -9.646470 34.089077 2.841903 9.556440 12.619288 -11.049331 29.119101 
9.965825 49.912239 42.481857 -2.279303 3.356723 131.849121 0.000000 0.000000 0.000000 1.495381 -2.333190 -3.635458 21.748199 13.608750 14.306110 -39.870510 -12.291773 19.522198 -12.819484 -10.191379 -1.606011 -22.250919 -34.794163 19.179876 -95.804405 13.450518 14.259351 1.718004 -12.461489 -21.498959 1.515273 7.400183 -0.274376 -2.070643 2.676413 -1.641708 113.098427 -28.073116 36.039570 -14.083677 6.161067 -21.578564 -15.136991 16.455347 5.386411 42.620987 -5.990217 -6.529239 -6.346396 -1.091935 -13.411635 -9.227096 -14.967766 -6.210888 34.696526 1.093775 12.494740 11.546893 -8.360106 20.379049 
11.175209 49.565727 43.164684 -1.938298 3.991863 130.539169 0.000000 0.000000 0.000000 1.152389 -0.507710 -5.527876 20.117006 15.003676 15.642853 -37.183094 -14.364658 21.237803 -13.187110 -8.374836 -1.374109 -21.082603 -38.447937 21.083107 -95.925873 16.302248 16.495304 0.186251 -13.848407 -19.817297 1.237188 6.502954 -0.228788 -5.551889 0.844882 -0.371341 113.376923 -36.079365 44.021168 -11.118629 9.634376 -28.967533 -14.998390 12.156836 2.729256 41.766350 -8.298419 -1.251328 -4.834946 -0.394210 -7.798261 -7.135610 -14.309476 -2.144350 28.890984 -0.067614 9.220204 1.997350 -23.436174 14.233802 
12.514114 48.582058 43.966732 -2.204238 4.557187 127.940559 0.000000 0.000000 0.000000 2.139700 1.776105 -4.962677 17.406231 15.371330 16.574963 -34.020760 -15.304371 22.186991 -15.491464 -7.703098 -1.456617 -13.408709 -40.634018 14.572679 -95.980423 15.282167 17.148647 2.799192 -14.666944 -22.170694 1.311724 4.686934 -0.186159 -7.945602 0.456495 -4.503827 109.966568 -40.266315 48.084778 -10.344577 9.026922 -36.119267 -14.767894 10.619325 1.917728 43.251797 -8.105379 6.920029 -10.402391 6.713929 -0.394004 -5.681392 -14.380983 3.162888 19.840738 0.794004 3.095513 9.236019 -19.991339 16.288218 
